<?xml version="1.0" standalone="no"?>
<!DOCTYPE svg PUBLIC "-//W3C//DTD SVG 20010904//EN"
 "http://www.w3.org/TR/2001/REC-SVG-20010904/DTD/svg10.dtd">
<svg version="1.0" xmlns="http://www.w3.org/2000/svg"
 width="200.000000pt" height="200.000000pt" viewBox="0 0 200.000000 200.000000"
 preserveAspectRatio="xMidYMid meet">

<g transform="translate(0.000000,200.000000) scale(0.100000,-0.100000)"
fill="#000000" stroke="none">
<path d="M718 1633 c-10 -2 -18 -11 -18 -19 0 -11 15 -14 64 -14 42 0 66 -4
69 -12 3 -7 6 -1 6 13 1 20 -5 28 -21 33 -26 6 -74 6 -100 -1z"/>
<path d="M711 1572 c-1 -8 8 -27 20 -43 l20 -29 -20 -26 c-12 -15 -21 -34 -20
-43 0 -10 4 -6 10 9 6 13 17 32 26 42 14 16 14 20 -3 45 -11 16 -22 35 -26 43
-5 11 -7 12 -7 2z"/>
<path d="M802 1534 l-23 -35 26 -30 c14 -17 25 -27 25 -23 0 4 -9 18 -21 30
l-21 22 23 31 c12 17 21 33 18 35 -2 3 -15 -11 -27 -30z"/>
<path d="M758 1542 c11 -13 21 -16 30 -9 21 16 13 27 -18 27 -29 0 -29 -1 -12
-18z"/>
<path d="M255 1458 c3 -13 34 -129 69 -258 l63 -235 71 -3 c71 -3 71 -3 78 25
4 15 35 132 69 258 l62 230 -45 3 c-25 2 -48 0 -52 -5 -4 -4 -29 -87 -55 -183
-26 -96 -51 -178 -55 -183 -3 -4 -23 55 -44 130 -20 76 -44 162 -52 191 l-16
52 -49 0 c-46 0 -49 -1 -44 -22z"/>
<path d="M1316 1449 c-3 -17 -6 -35 -6 -40 0 -5 57 -9 128 -9 134 0 172 -11
172 -48 0 -9 -32 -47 -71 -84 l-72 -67 33 -58 c45 -79 149 -233 158 -233 4 0
20 10 36 23 l29 23 -67 106 c-36 58 -66 109 -66 113 0 4 21 30 46 57 59 63 76
104 64 150 -21 76 -77 98 -248 98 l-129 0 -7 -31z"/>
<path d="M747 1432 c-25 -28 -21 -32 28 -32 l45 0 -16 25 c-19 30 -35 32 -57
7z"/>
<path d="M826 1405 c-6 -18 -106 -22 -106 -4 0 5 -4 7 -10 4 -5 -3 -10 -13
-10 -21 0 -11 16 -14 70 -14 68 0 70 1 70 25 0 28 -5 32 -14 10z"/>
<path d="M730 1150 l0 -190 45 0 45 0 0 190 0 190 -45 0 -45 0 0 -190z"/>
<path d="M920 1150 l0 -190 45 0 45 0 0 150 0 150 59 0 c86 0 91 -10 91 -172
l0 -128 40 0 40 0 0 153 c-1 165 -2 170 -60 206 -30 18 -50 21 -147 21 l-113
0 0 -190z"/>
<path d="M1350 1145 l0 -185 45 0 45 0 0 185 0 185 -45 0 -45 0 0 -185z"/>
<path d="M387 864 c-4 -4 -7 -56 -7 -116 l0 -108 75 0 c43 0 75 4 75 10 0 6
-27 10 -60 10 l-60 0 0 40 0 40 55 0 c42 0 55 3 55 15 0 12 -13 15 -55 15
l-55 0 0 35 0 35 61 0 c44 0 60 3 57 13 -5 13 -129 23 -141 11z"/>
<path d="M1290 856 c0 -8 5 -18 10 -21 6 -3 10 3 10 14 0 12 -4 21 -10 21 -5
0 -10 -6 -10 -14z"/>
<path d="M736 845 c-4 -11 -12 -29 -18 -40 -8 -14 -8 -20 1 -23 7 -2 11 -30
11 -72 0 -54 3 -69 17 -74 9 -4 21 -2 26 3 7 7 5 12 -6 17 -13 5 -17 19 -17
64 0 37 5 60 13 63 9 4 9 8 0 14 -6 4 -13 22 -15 38 -4 26 -5 27 -12 10z"/>
<path d="M611 801 c-8 -5 -20 -7 -28 -4 -10 4 -13 -12 -13 -76 0 -47 4 -81 10
-81 6 0 10 24 10 54 0 69 7 86 35 86 28 0 35 -17 35 -86 0 -30 5 -54 10 -54
11 0 14 129 2 146 -11 17 -45 25 -61 15z"/>
<path d="M815 785 c-35 -34 -35 -96 0 -130 29 -30 58 -32 85 -5 24 24 26 40 5
40 -8 0 -15 -4 -15 -10 0 -5 -9 -14 -20 -20 -15 -8 -24 -6 -40 10 -32 32 -24
40 35 40 52 0 55 1 55 25 0 29 -40 75 -65 75 -9 0 -27 -11 -40 -25z m72 -20
c7 -21 3 -24 -35 -29 -25 -3 -32 0 -32 14 0 9 3 20 7 23 12 13 54 7 60 -8z"/>
<path d="M990 800 c-7 -4 -19 -6 -27 -3 -10 4 -13 -12 -13 -76 0 -47 4 -81 10
-81 6 0 10 20 10 44 0 55 15 96 34 96 8 0 17 4 20 9 8 12 -18 21 -34 11z"/>
<path d="M1090 800 c-8 -5 -23 -7 -32 -4 -16 5 -18 -5 -18 -110 0 -96 3 -116
15 -116 11 0 15 11 15 40 0 37 2 39 19 28 15 -9 24 -8 44 5 46 30 45 131 -2
156 -24 13 -22 13 -41 1z m44 -36 c3 -9 6 -28 6 -44 0 -44 -10 -60 -36 -60
-33 0 -49 40 -34 86 9 26 17 34 35 34 12 0 26 -7 29 -16z"/>
<path d="M1236 801 c-4 -6 -13 -8 -21 -4 -12 4 -15 -9 -15 -76 0 -47 4 -81 10
-81 6 0 10 26 10 59 0 59 17 90 41 76 7 -5 10 -1 7 10 -4 21 -23 31 -32 16z"/>
<path d="M1373 800 c-17 -7 -23 -18 -23 -40 0 -27 6 -33 45 -50 49 -21 56 -34
25 -50 -16 -8 -24 -6 -41 11 -14 14 -24 18 -31 11 -13 -13 25 -52 50 -52 28 0
62 29 62 54 0 27 -13 39 -55 53 -39 12 -47 43 -11 43 14 0 28 -4 31 -10 9 -15
25 -12 25 5 0 12 -41 38 -53 34 -1 0 -12 -4 -24 -9z"/>
<path d="M1524 800 c-51 -20 -56 -125 -8 -157 29 -19 69 -10 88 19 13 22 -2
38 -17 17 -19 -24 -45 -30 -62 -13 -30 30 -18 44 35 44 49 0 50 1 50 29 0 20
-9 36 -26 50 -29 23 -30 23 -60 11z m56 -35 c17 -20 8 -28 -35 -32 -35 -4 -40
2 -29 31 8 20 48 21 64 1z"/>
<path d="M1660 792 c-34 -28 -21 -65 30 -85 44 -17 50 -31 20 -47 -16 -8 -24
-6 -41 11 -24 24 -34 20 -24 -10 13 -43 90 -38 101 6 9 34 -5 54 -47 68 -19 7
-34 18 -34 26 0 18 45 25 55 9 4 -7 14 -10 21 -8 9 3 7 10 -9 26 -27 27 -43
28 -72 4z"/>
<path d="M1290 720 c0 -47 4 -80 10 -80 6 0 10 33 10 80 0 47 -4 80 -10 80 -6
0 -10 -33 -10 -80z"/>
<path d="M466 465 c-9 -26 -7 -32 5 -12 6 10 9 21 6 23 -2 3 -7 -2 -11 -11z"/>
<path d="M1435 460 c-3 -5 -1 -10 4 -10 6 0 11 5 11 10 0 6 -2 10 -4 10 -3 0
-8 -4 -11 -10z"/>
<path d="M501 453 c-1 -6 -4 -20 -7 -30 -5 -17 -5 -17 6 0 6 10 9 23 6 30 -3
9 -5 9 -5 0z"/>
<path d="M600 445 c0 -8 2 -15 4 -15 2 0 6 7 10 15 3 8 1 15 -4 15 -6 0 -10
-7 -10 -15z"/>
<path d="M738 453 c7 -3 16 -2 19 1 4 3 -2 6 -13 5 -11 0 -14 -3 -6 -6z"/>
<path d="M840 442 c0 -13 4 -20 10 -17 6 3 10 1 10 -6 0 -7 3 -10 6 -6 3 3 -1
16 -10 29 l-16 22 0 -22z"/>
<path d="M941 444 c0 -11 3 -14 6 -6 3 7 2 16 -1 19 -3 4 -6 -2 -5 -13z"/>
<path d="M966 445 c4 -8 8 -15 10 -15 2 0 4 7 4 15 0 8 -4 15 -10 15 -5 0 -7
-7 -4 -15z"/>
<path d="M1100 446 c-6 -9 -10 -21 -7 -28 4 -9 6 -7 6 4 1 9 7 18 14 21 6 2 9
7 6 11 -3 4 -12 0 -19 -8z"/>
<path d="M1265 450 c-3 -6 1 -7 9 -4 18 7 21 14 7 14 -6 0 -13 -4 -16 -10z"/>
<path d="M1515 449 c-11 -16 -1 -19 13 -3 7 8 8 14 3 14 -5 0 -13 -5 -16 -11z"/>
<path d="M1612 440 c0 -14 2 -19 5 -12 2 6 2 18 0 25 -3 6 -5 1 -5 -13z"/>
<path d="M640 436 c0 -8 4 -17 9 -20 5 -4 7 3 4 14 -6 23 -13 26 -13 6z"/>
<path d="M792 430 c0 -14 2 -19 5 -12 2 6 2 18 0 25 -3 6 -5 1 -5 -13z"/>
<path d="M1200 446 c0 -2 7 -7 16 -10 8 -3 12 -2 9 4 -6 10 -25 14 -25 6z"/>
<path d="M1581 434 c0 -11 3 -14 6 -6 3 7 2 16 -1 19 -3 4 -6 -2 -5 -13z"/>
<path d="M901 424 c0 -11 3 -14 6 -6 3 7 2 16 -1 19 -3 4 -6 -2 -5 -13z"/>
<path d="M1650 436 c0 -2 7 -7 16 -10 8 -3 12 -2 9 4 -6 10 -25 14 -25 6z"/>
<path d="M1120 420 c0 -5 5 -10 10 -10 6 0 10 5 10 10 0 6 -4 10 -10 10 -5 0
-10 -4 -10 -10z"/>
</g>
</svg>
